<svg class="bi bi-front" version="1.1" viewBox="0 0 32 32" xmlns="http://www.w3.org/2000/svg" xmlns:cc="http://creativecommons.org/ns#" xmlns:dc="http://purl.org/dc/elements/1.1/" xmlns:rdf="http://www.w3.org/1999/02/22-rdf-syntax-ns#">
 <style>path {
      fill: #000;
    }
    @media (prefers-color-scheme: dark) {
      path {
        fill: #fff;
      }
    }</style>
 <path d="m0 3.9968a3.9968 3.9968 0 0 1 3.9968-3.9968h15.987a3.9968 3.9968 0 0 1 3.9968 3.9968v3.9968h3.9968a3.9968 3.9968 0 0 1 3.9968 3.9968v15.987a3.9968 3.9968 0 0 1-3.9968 3.9968h-15.987a3.9968 3.9968 0 0 1-3.9968-3.9968v-3.9968h-3.9968a3.9968 3.9968 0 0 1-3.9968-3.9968zm9.9921 19.984v3.9968a1.9984 1.9984 0 0 0 1.9984 1.9984h15.987a1.9984 1.9984 0 0 0 1.9984-1.9984v-15.987a1.9984 1.9984 0 0 0-1.9984-1.9984h-3.9968v9.9921a3.9968 3.9968 0 0 1-3.9968 3.9968z" fill-rule="evenodd" stroke-width="1.9984"/>
</svg>
